<svg xmlns="http://www.w3.org/2000/svg" xmlns:xlink="http://www.w3.org/1999/xlink" width="40" height="40" viewBox="0 0 40 40"><defs><style>.a{fill:#81869f;}.b{clip-path:url(#a);}.c{fill:#1eb45b;stroke:#f42d2d;stroke-width:0.079px;}.d{fill:#e6e9ee;}.e{fill:#ffd05b;}.f{fill:#ff661c;}.g{fill:#fff;}.h{fill:#f9b54c;}.i{fill:#324a5e;}</style><clipPath id="a"><circle class="a" cx="20" cy="20" r="20"/></clipPath></defs><g class="b"><path class="c" d="M20,0A20,20,0,1,1,0,20,20,20,0,0,1,20,0Z"/><path class="d" d="M20.094,28.6c-.031,0-.063.031-.126.031-.031,0-.063-.031-.126-.031Z"/><path class="d" d="M36.094,31.811a19.972,19.972,0,0,1-32.252,0,20.46,20.46,0,0,1,9.89-5.449,11.987,11.987,0,0,0,.945,5.291c1.2-2.772,5.26-3.024,5.26-3.024s4.063.22,5.291,3.024a12.111,12.111,0,0,0,.945-5.291A20.412,20.412,0,0,1,36.094,31.811Z"/><path class="e" d="M24.945,24.252h0c0,.409-.252,2.583-4.85,4.346h-.252c-4.6-1.764-4.85-3.937-4.85-4.346h0a6.344,6.344,0,0,1,.567-2.394,6.1,6.1,0,0,0,4.409,2.362,6.043,6.043,0,0,0,4.409-2.362A5.8,5.8,0,0,1,24.945,24.252Z"/><path class="f" d="M22.709,29.323,21.7,31.339H18.236l-1.008-2.016a9.406,9.406,0,0,1,2.74-.693A9.184,9.184,0,0,1,22.709,29.323Z"/><path class="f" d="M17.165,39.811A20.731,20.731,0,0,0,20,40a21.425,21.425,0,0,0,2.835-.189l-1.1-8.441H18.268Z"/><path class="g" d="M24.945,24.189s.22,2.52-4.976,4.441c0,0,4.063.22,5.291,3.024C25.291,31.78,27.654,25.669,24.945,24.189Z"/><path class="g" d="M14.992,24.189c-2.677,1.48-.346,7.559-.283,7.465C15.906,28.882,20,28.63,20,28.63,14.772,26.709,14.992,24.189,14.992,24.189Z"/><path class="h" d="M24.63,22.488a6.448,6.448,0,0,1-4.661,2.331,6.448,6.448,0,0,1-4.661-2.331,3.754,3.754,0,0,1,.252-.63,6.1,6.1,0,0,0,4.409,2.362,5.989,5.989,0,0,0,4.409-2.362A3.754,3.754,0,0,1,24.63,22.488Z"/><path class="e" d="M28.567,17.669a2.811,2.811,0,0,1-2.425,1.638c-1.512,2.8-3.717,4.882-6.173,4.882s-4.661-2.11-6.173-4.882a2.874,2.874,0,0,1-2.425-1.638c-.787-1.291-.819-2.709-.063-3.181a.985.985,0,0,1,.6-.126,7.6,7.6,0,0,0,1.2,2.079c-.724-4,2.236-4.441,1.732-8.283,0,0,1.858,4.126,7.181,1.228l-.409.787c7.433-1.669,4.945,7.087,4.882,7.307a9.928,9.928,0,0,0,1.7-3.118.772.772,0,0,1,.378.126C29.386,14.929,29.354,16.378,28.567,17.669Z"/><path class="i" d="M24.252,4a3.68,3.68,0,0,1,1.575.472c-2.677-3.055-7.055-1.1-7.055-1.1a4.106,4.106,0,0,1,2.8-1.134c-6.268-.945-7.339,2.8-7.339,2.8a2.335,2.335,0,0,1-.252-1.386,3.66,3.66,0,0,0,.031,2.268c-.441-1.1-1.984-.913-1.984-.913,1.323.22,1.543,1.039,1.543,1.039a4.286,4.286,0,0,0-2.74,4.661l.787-.945a7.88,7.88,0,0,0,1.512,6.646c-.724-4,2.236-4.441,1.732-8.283,0,0,1.858,4.126,7.181,1.228l-.409.787c7.528-1.7,4.882,7.339,4.882,7.339a10.165,10.165,0,0,0,2.268-6.9l.315,1.26C29.953,6.173,24.252,4,24.252,4Z"/></g></svg>