<svg xmlns="http://www.w3.org/2000/svg" width="15.303" height="12.752" viewBox="0 0 15.303 12.752"><defs><style>.a{fill:#2e384d;}</style></defs><path class="a" d="M14.824,14.752a.478.478,0,0,1-.42-.249l-.013-.024a8.132,8.132,0,0,0-7.111-4.19h-.9V13a.478.478,0,0,1-.811.343L.145,8.082a.477.477,0,0,1,0-.686l5.42-5.26a.478.478,0,0,1,.811.343V5.189A9.1,9.1,0,0,1,15.3,14.274a.478.478,0,0,1-.36.464A.472.472,0,0,1,14.824,14.752ZM5.9,9.333H7.28a9.091,9.091,0,0,1,6.863,3.131A8.144,8.144,0,0,0,6.217,6.144H5.9a.478.478,0,0,1-.478-.478V3.609L1.165,7.739l4.255,4.13V9.811A.478.478,0,0,1,5.9,9.333Z" transform="translate(0 -2)"/></svg>