<svg xmlns="http://www.w3.org/2000/svg" width="20.783" height="14.547" viewBox="0 0 20.783 14.547"><defs><style>.a{fill:#4093d0;}.b{fill:#fff;}</style></defs><g transform="translate(-0.5 -0.5)"><path class="a" d="M9.149,2.087A3.642,3.642,0,0,1,11.784.955a3.68,3.68,0,0,1,3.206,1.9A4.431,4.431,0,0,1,16.8,2.471a4.52,4.52,0,0,1,0,9.039,4.447,4.447,0,0,1-.883-.088,3.275,3.275,0,0,1-4.292,1.348A3.737,3.737,0,0,1,4.682,12.6a3.428,3.428,0,0,1-.713.074A3.512,3.512,0,0,1,2.235,6.134,4.036,4.036,0,0,1,9.149,2.087"/><path class="b" d="M144.975,283.263c-.013.034,0,.041.009.047a1.217,1.217,0,0,0,.119.072,1.266,1.266,0,0,0,.621.145c.426,0,.691-.227.691-.592v-.007c0-.338-.3-.46-.579-.549l-.036-.012c-.211-.069-.394-.128-.394-.267v-.007c0-.119.107-.207.272-.207a1.229,1.229,0,0,1,.542.139s.041.027.056-.013l.087-.233a.04.04,0,0,0-.021-.048,1.209,1.209,0,0,0-.611-.164h-.043a.6.6,0,0,0-.663.573v.007c0,.356.3.472.582.552l.045.014c.205.063.382.117.382.262v.007c0,.132-.115.23-.3.23a1.008,1.008,0,0,1-.549-.158c-.03-.017-.047-.03-.07-.044a.034.034,0,0,0-.056.019Zm6.241,0c-.013.034,0,.041.009.047a1.22,1.22,0,0,0,.119.072,1.266,1.266,0,0,0,.621.145c.426,0,.691-.227.691-.592v-.007c0-.338-.3-.46-.579-.549l-.036-.012c-.211-.069-.394-.128-.394-.267v-.007c0-.119.107-.207.272-.207a1.229,1.229,0,0,1,.542.139s.041.027.056-.013l.087-.233a.04.04,0,0,0-.021-.048,1.209,1.209,0,0,0-.611-.164h-.043a.6.6,0,0,0-.663.573v.007c0,.356.3.472.582.552l.045.014c.205.063.382.117.382.262v.007c0,.132-.115.23-.3.23a1.008,1.008,0,0,1-.549-.158c-.03-.017-.048-.03-.07-.044a.036.036,0,0,0-.056.019Zm4.261-.715a.877.877,0,0,1-.114.484.382.382,0,0,1-.346.169.378.378,0,0,1-.345-.169,1.093,1.093,0,0,1,0-.966.38.38,0,0,1,.345-.167.385.385,0,0,1,.347.167.871.871,0,0,1,.114.482m.356-.383a.857.857,0,0,0-.162-.309.783.783,0,0,0-.273-.208.991.991,0,0,0-.763,0,.787.787,0,0,0-.274.208.87.87,0,0,0-.162.309,1.429,1.429,0,0,0,0,.765.861.861,0,0,0,.162.309.764.764,0,0,0,.273.206,1.012,1.012,0,0,0,.763,0,.764.764,0,0,0,.273-.206.856.856,0,0,0,.162-.309,1.422,1.422,0,0,0,0-.765m2.922.98a.034.034,0,0,0-.045-.022.816.816,0,0,1-.165.047,1.294,1.294,0,0,1-.2.014.542.542,0,0,1-.407-.152.68.68,0,0,1-.153-.486.754.754,0,0,1,.136-.469.465.465,0,0,1,.395-.174,1.182,1.182,0,0,1,.376.054s.028.012.041-.025c.031-.086.054-.148.087-.243a.032.032,0,0,0-.022-.042,1.392,1.392,0,0,0-.237-.06,1.781,1.781,0,0,0-.267-.018.967.967,0,0,0-.4.076.821.821,0,0,0-.287.208.883.883,0,0,0-.173.309,1.231,1.231,0,0,0-.058.383,1.024,1.024,0,0,0,.237.708.9.9,0,0,0,.7.264,1.448,1.448,0,0,0,.5-.09.032.032,0,0,0,.014-.042Zm.623-.8a.7.7,0,0,1,.1-.284.383.383,0,0,1,.344-.175.374.374,0,0,1,.337.175.6.6,0,0,1,.08.284h-.859Zm1.2-.252a.748.748,0,0,0-.154-.282.707.707,0,0,0-.229-.174.881.881,0,0,0-.345-.07.94.94,0,0,0-.4.077.791.791,0,0,0-.277.212.868.868,0,0,0-.163.313,1.353,1.353,0,0,0-.053.385,1.288,1.288,0,0,0,.055.385.774.774,0,0,0,.478.507,1.214,1.214,0,0,0,.437.071,1.259,1.259,0,0,0,.607-.12c.013-.007.026-.02.01-.058l-.079-.221a.035.035,0,0,0-.045-.021,1.162,1.162,0,0,1-.494.089.493.493,0,0,1-.552-.542h1.2a.036.036,0,0,0,.035-.031,1.292,1.292,0,0,0-.036-.519m-10.846.252a.7.7,0,0,1,.1-.284.383.383,0,0,1,.344-.175.375.375,0,0,1,.338.175.6.6,0,0,1,.08.284Zm1.2-.252a.747.747,0,0,0-.154-.282.707.707,0,0,0-.229-.174.881.881,0,0,0-.345-.07.941.941,0,0,0-.4.077.791.791,0,0,0-.277.212.868.868,0,0,0-.163.313,1.363,1.363,0,0,0-.053.385,1.287,1.287,0,0,0,.055.385.773.773,0,0,0,.478.507,1.213,1.213,0,0,0,.437.071,1.259,1.259,0,0,0,.607-.12c.013-.007.026-.02.01-.058l-.078-.221a.035.035,0,0,0-.046-.021,1.162,1.162,0,0,1-.495.089.493.493,0,0,1-.552-.542h1.2a.036.036,0,0,0,.035-.031,1.29,1.29,0,0,0-.036-.519m-3.8,1.041a.244.244,0,0,1-.07-.071.291.291,0,0,1-.036-.157.264.264,0,0,1,.107-.233.54.54,0,0,1,.349-.087,2.467,2.467,0,0,1,.327.028v.548h0a2.451,2.451,0,0,1-.325.043.541.541,0,0,1-.353-.07m.479-.846c-.049,0-.112-.006-.188-.006a1.142,1.142,0,0,0-.3.038.774.774,0,0,0-.252.117.562.562,0,0,0-.239.476.629.629,0,0,0,.055.275.5.5,0,0,0,.157.188.659.659,0,0,0,.245.106,1.437,1.437,0,0,0,.319.033,2.176,2.176,0,0,0,.366-.03c.118-.02.263-.049.3-.059l.084-.022a.038.038,0,0,0,.028-.039v-1.1a.674.674,0,0,0-.192-.532.82.82,0,0,0-.553-.167,1.983,1.983,0,0,0-.323.03,1.164,1.164,0,0,0-.372.136.038.038,0,0,0-.011.048l.085.229a.03.03,0,0,0,.039.02l.02-.01a1.223,1.223,0,0,1,.525-.122.485.485,0,0,1,.3.078c.066.05.1.126.1.287v.051c-.1-.015-.2-.023-.2-.023m9.716-.621a.032.032,0,0,0-.018-.043,1.043,1.043,0,0,0-.2-.035.6.6,0,0,0-.311.05.548.548,0,0,0-.2.15v-.147a.035.035,0,0,0-.035-.037h-.309a.035.035,0,0,0-.035.037v1.8a.037.037,0,0,0,.037.037h.316a.037.037,0,0,0,.036-.037v-.9a1.052,1.052,0,0,1,.04-.316.455.455,0,0,1,.105-.177.37.37,0,0,1,.149-.089.581.581,0,0,1,.162-.023.677.677,0,0,1,.132.016c.023,0,.036-.012.044-.033.021-.055.079-.22.091-.253" transform="translate(-141.465 -275.22)"/><path class="b" d="M324.293,244.68a1.033,1.033,0,0,0-.119-.028.944.944,0,0,0-.164-.012.69.69,0,0,0-.51.183,1,1,0,0,0-.242.547l-.015.081h-.274a.041.041,0,0,0-.04.035l-.045.251c0,.024.007.039.039.039h.266l-.27,1.507a1.861,1.861,0,0,1-.072.3.606.606,0,0,1-.084.171.224.224,0,0,1-.11.085.448.448,0,0,1-.142.02.534.534,0,0,1-.1-.011.286.286,0,0,1-.065-.021.033.033,0,0,0-.044.019c-.01.026-.081.221-.089.245a.036.036,0,0,0,.019.048.986.986,0,0,0,.11.032.73.73,0,0,0,.176.017.883.883,0,0,0,.3-.046.558.558,0,0,0,.223-.155.8.8,0,0,0,.156-.27,2.286,2.286,0,0,0,.106-.4l.272-1.536h.4a.041.041,0,0,0,.04-.035l.045-.25c0-.024-.007-.039-.039-.039h-.385a1.67,1.67,0,0,1,.064-.272.356.356,0,0,1,.084-.129.253.253,0,0,1,.1-.063.419.419,0,0,1,.129-.018.506.506,0,0,1,.1.01c.037.008.052.012.062.015.039.012.045,0,.052-.019l.092-.253a.032.032,0,0,0-.022-.042m-5.382,2.605a.035.035,0,0,1-.035.036h-.319a.035.035,0,0,1-.034-.036v-2.571a.035.035,0,0,1,.034-.036h.319a.035.035,0,0,1,.035.036Z" transform="translate(-311.407 -239.06)"/></g></svg>